<svg version="1.1" viewBox="0.0 0.0 206.0 236.0" fill="none" stroke="none" stroke-linecap="square" stroke-miterlimit="10" xmlns:xlink="http://www.w3.org/1999/xlink" xmlns="http://www.w3.org/2000/svg"><clipPath id="p.0"><path d="m0 0l206.0 0l0 236.0l-206.0 0l0 -236.0z" clip-rule="nonzero"/></clipPath><g clip-path="url(#p.0)"><path fill="#000000" fill-opacity="0.0" d="m0 0l206.0 0l0 236.0l-206.0 0z" fill-rule="evenodd"/><defs><radialGradient id="p.1" gradientUnits="userSpaceOnUse" gradientTransform="matrix(10.067730153950091 0.0 0.0 10.067730153950091 0.0 0.0)" spreadMethod="pad" cx="10.169963822818321" cy="11.597825700736188" fx="10.169963822818321" fy="11.597825700736188" r="10.067729949951172"><stop offset="0.0" stop-color="#dfe9fb"/><stop offset="1.0" stop-color="#6e9be7"/></radialGradient></defs><path fill="url(#p.1)" d="m33.207348 190.84251l0 -148.15747l138.3622 148.15747z" fill-rule="evenodd"/><path stroke="#000000" stroke-width="2.0" stroke-linejoin="round" stroke-linecap="butt" d="m33.207348 190.84251l0 -148.15747l138.3622 148.15747z" fill-rule="evenodd"/><defs><radialGradient id="p.2" gradientUnits="userSpaceOnUse" gradientTransform="matrix(-10.067730153950091 0.0 0.0 -10.067730153950091 0.0 0.0)" spreadMethod="pad" cx="-10.169969349689202" cy="-11.597701971824874" fx="-10.169969349689202" fy="-11.597701971824874" r="10.067729949951172"><stop offset="0.0" stop-color="#f2f2f2"/><stop offset="1.0" stop-color="#a6a6a6"/></radialGradient></defs><path fill="url(#p.2)" d="m171.56961 42.683792l0 148.15749l-138.36221 -148.15749z" fill-rule="evenodd"/><path stroke="#000000" stroke-width="2.0" stroke-linejoin="round" stroke-linecap="butt" d="m171.56961 42.683792l0 148.15749l-138.36221 -148.15749z" fill-rule="evenodd"/><defs><linearGradient id="p.3" gradientUnits="userSpaceOnUse" gradientTransform="matrix(8.714198998768452 0.0 0.0 8.714198998768452 0.0 0.0)" spreadMethod="pad" x1="7.588905601667649" y1="8.969553409811077" x2="7.588873835022638" y2="17.68375240852163"><stop offset="0.0" stop-color="#fff6db"/><stop offset="1.0" stop-color="#fad25c"/></linearGradient></defs><path fill="url(#p.3)" d="m66.13123 78.16273l70.960625 0l0 75.937004l-70.960625 0z" fill-rule="evenodd"/><path fill="#000000" d="m88.1854 130.68272l0 -28.625l-10.6875 0l0 -3.828125l25.71875 0l0 3.828125l-10.734375 0l0 28.625l-4.296875 0zm18.953857 0l0 -32.453125l3.984375 0l0 18.515625l9.421875 -9.5625l5.15625 0l-8.984375 8.71875l9.890625 14.78125l-4.90625 0l-7.765625 -12.015625l-2.8125 2.703125l0 9.3125l-3.984375 0z" fill-rule="nonzero"/><path fill="#000000" fill-opacity="0.0" d="m34.430447 154.10236l138.3622 0l0 39.2126l-138.3622 0z" fill-rule="evenodd"/><path fill="#ffffff" d="m48.10232 182.30237l0 -11.890625l-4.234375 0l0 -2.421875l11.375 0l0 2.421875l-4.25 0l0 11.890625l-2.890625 0zm13.498047 -3.296875l2.7343712 0.453125q-0.5156212 1.5 -1.6562462 2.296875q-1.140625 0.78125 -2.84375 0.78125q-2.71875 0 -4.015625 -1.765625q-1.015625 -1.421875 -1.015625 -3.578125q0 -2.578125 1.34375 -4.03125q1.34375 -1.46875 3.40625 -1.46875q2.3125 0 3.640625 1.53125q1.3437462 1.53125 1.2968712 4.6875l-6.874996 0q0.03125 1.21875 0.65625 1.90625q0.640625 0.671875 1.578125 0.671875q0.65625 0 1.09375 -0.34375q0.4375 -0.359375 0.65625 -1.140625zm0.15625 -2.78125q-0.03125 -1.1875 -0.625 -1.796875q-0.578125 -0.625 -1.40625 -0.625q-0.90625 0 -1.484375 0.640625q-0.59375 0.65625 -0.578125 1.78125l4.09375 0zm3.998043 3.125l2.75 -0.421875q0.1875 0.796875 0.71875 1.21875q0.53125 0.40625 1.5 0.40625q1.0625 0 1.609375 -0.390625q0.359375 -0.265625 0.359375 -0.734375q0 -0.3125 -0.203125 -0.515625q-0.203125 -0.1875 -0.90625 -0.359375q-3.328125 -0.734375 -4.21875 -1.34375q-1.234375 -0.828125 -1.234375 -2.328125q0 -1.34375 1.0625 -2.265625q1.078125 -0.921875 3.3125 -0.921875q2.125 0 3.15625 0.703125q1.046875 0.6875 1.4375 2.046875l-2.59375 0.46875q-0.171875 -0.59375 -0.640625 -0.921875q-0.453125 -0.328125 -1.3125 -0.328125q-1.078125 0 -1.546875 0.3125q-0.3125 0.21875 -0.3125 0.546875q0 0.296875 0.265625 0.5q0.375 0.28125 2.5625 0.78125q2.1875 0.5 3.0625 1.21875q0.859375 0.734375 0.859375 2.03125q0 1.4375 -1.1875 2.46875q-1.1875 1.015625 -3.53125 1.015625q-2.109375 0 -3.359375 -0.859375q-1.234375 -0.859375 -1.609375 -2.328125zm12.091797 2.953125l0 -14.3125l2.75 0l0 14.3125l-2.75 0zm7.6035156 -7.203125l-2.484375 -0.453125q0.421875 -1.5 1.4375 -2.21875q1.03125 -0.734375 3.046875 -0.734375q1.84375 0 2.734375 0.4375q0.90625 0.4375 1.265625 1.109375q0.375 0.65625 0.375 2.453125l-0.03125 3.203125q0 1.359375 0.125 2.015625q0.140625 0.640625 0.5 1.390625l-2.71875 0q-0.109375 -0.28125 -0.265625 -0.8125q-0.0625 -0.25 -0.09375 -0.328125q-0.703125 0.6875 -1.515625 1.03125q-0.796875 0.34375 -1.703125 0.34375q-1.59375 0 -2.515625 -0.859375q-0.921875 -0.875 -0.921875 -2.203125q0 -0.890625 0.40625 -1.578125q0.421875 -0.6875 1.171875 -1.046875q0.765625 -0.375 2.203125 -0.640625q1.921875 -0.359375 2.65625 -0.671875l0 -0.28125q0 -0.78125 -0.390625 -1.109375q-0.390625 -0.34375 -1.46875 -0.34375q-0.734375 0 -1.15625 0.28125q-0.40625 0.28125 -0.65625 1.015625zm3.671875 2.21875q-0.53125 0.171875 -1.671875 0.421875q-1.140625 0.25 -1.484375 0.484375q-0.546875 0.375 -0.546875 0.96875q0 0.5625 0.421875 0.984375q0.4375 0.421875 1.109375 0.421875q0.734375 0 1.40625 -0.484375q0.5 -0.375 0.65625 -0.90625q0.109375 -0.359375 0.109375 -1.34375l0 -0.546875zm5.310547 4.984375l0 -14.3125l2.734375 0l0 7.59375l3.21875 -3.65625l3.375 0l-3.546875 3.796875l3.796875 6.578125l-2.953125 0l-2.609375 -4.65625l-1.28125 1.328125l0 3.328125l-2.734375 0zm11.216797 -11.78125l0 -2.53125l2.75 0l0 2.53125l-2.75 0zm0 11.78125l0 -10.375l2.75 0l0 10.375l-2.75 0zm10.306641 -10.375l0 2.1875l-1.875 0l0 4.1875q0 1.265625 0.046875 1.484375q0.0625 0.203125 0.25 0.34375q0.203125 0.125 0.46875 0.125q0.375 0 1.109375 -0.265625l0.234375 2.140625q-0.96875 0.40625 -2.171875 0.40625q-0.75 0 -1.34375 -0.25q-0.59375 -0.25 -0.875 -0.640625q-0.265625 -0.40625 -0.375 -1.078125q-0.09375 -0.46875 -0.09375 -1.921875l0 -4.53125l-1.265625 0l0 -2.1875l1.265625 0l0 -2.0625l2.75 -1.59375l0 3.65625l1.875 0z" fill-rule="nonzero"/></g></svg>